<svg width="110" height="100" viewBox="0 0 110 100" fill="none" xmlns="http://www.w3.org/2000/svg">
<rect x="30" y="17" width="5" height="20" fill="#3F4B53"/>
<rect x="35" y="37" width="5" height="10" fill="#3F4B53"/>
<rect x="35" y="52" width="5" height="10" fill="#3F4B53"/>
<rect x="40" y="47" width="5" height="5" fill="#3F4B53"/>
<rect x="30" y="62" width="5" height="20" fill="#3F4B53"/>
<rect width="5" height="20" transform="matrix(-1 0 0 1 80 17)" fill="#3F4B53"/>
<rect width="5" height="10" transform="matrix(-1 0 0 1 75 37)" fill="#3F4B53"/>
<rect width="5" height="10" transform="matrix(-1 0 0 1 75 52)" fill="#3F4B53"/>
<rect width="5" height="5" transform="matrix(-1 0 0 1 70 47)" fill="#3F4B53"/>
<rect width="5" height="20" transform="matrix(-1 0 0 1 80 62)" fill="#3F4B53"/>
<rect x="20" y="82" width="70" height="13" fill="#3F4B53"/>
<rect x="20" y="4" width="70" height="13" fill="#3F4B53"/>
<rect x="65" y="67" width="5" height="15" fill="#3F4B53"/>
<rect x="60" y="72" width="5" height="10" fill="#3F4B53"/>
<rect x="50" y="72" width="5" height="10" fill="#3F4B53"/>
<rect width="30" height="15" transform="matrix(1 0 0 -1 40 32)" fill="#3F4B53"/>
<rect width="20" height="5" transform="matrix(1 0 0 -1 45 37)" fill="#3F4B53"/>
<rect width="10" height="5" transform="matrix(1 0 0 -1 50 42)" fill="#3F4B53"/>
<rect width="5" height="5" transform="matrix(1 0 0 -1 55 52)" fill="#3F4B53"/>
<rect width="5" height="5" transform="matrix(1 0 0 -1 55 82)" fill="#3F4B53"/>
<rect width="5" height="5" transform="matrix(1 0 0 -1 45 82)" fill="#3F4B53"/>
<rect width="5" height="5" transform="matrix(1 0 0 -1 40 82)" fill="#3F4B53"/>
</svg>
