<svg width="110" height="100" viewBox="0 0 110 100" fill="none" xmlns="http://www.w3.org/2000/svg">
<rect x="37" y="55" width="16" height="5" fill="#3F4B53"/>
<rect x="62" y="80" width="16" height="5" fill="#3F4B53"/>
<rect x="57" y="75" width="16" height="5" fill="#3F4B53"/>
<rect x="52" y="70" width="16" height="5" fill="#3F4B53"/>
<rect x="47" y="65" width="16" height="5" fill="#3F4B53"/>
<rect x="42" y="60" width="16" height="5" fill="#3F4B53"/>
<rect x="32" y="50" width="16" height="5" fill="#3F4B53"/>
<rect width="16" height="5" transform="matrix(1 0 0 -1 37 45)" fill="#3F4B53"/>
<rect width="16" height="5" transform="matrix(1 0 0 -1 62 20)" fill="#3F4B53"/>
<rect width="16" height="5" transform="matrix(1 0 0 -1 57 25)" fill="#3F4B53"/>
<rect width="16" height="5" transform="matrix(1 0 0 -1 52 30)" fill="#3F4B53"/>
<rect width="16" height="5" transform="matrix(1 0 0 -1 47 35)" fill="#3F4B53"/>
<rect width="16" height="5" transform="matrix(1 0 0 -1 42 40)" fill="#3F4B53"/>
<rect width="16" height="5" transform="matrix(1 0 0 -1 32 50)" fill="#3F4B53"/>
</svg>
