<svg width="150" height="150" viewBox="0 0 150 150" fill="none" xmlns="http://www.w3.org/2000/svg">
<rect x="10" y="120" width="60" height="10" fill="#1B1711"/>
<rect y="100" width="10" height="20" fill="#1B1711"/>
<rect x="70" y="100" width="10" height="20" fill="#1B1711"/>
<rect x="10" y="90" width="60" height="30" fill="#1B1711"/>
<rect x="64" y="110" width="60" height="10" fill="#1B1711"/>
<rect x="54" y="90" width="10" height="20" fill="#1B1711"/>
<rect x="124" y="90" width="10" height="20" fill="#1B1711"/>
<rect x="64" y="80" width="60" height="30" fill="#1B1711"/>
<rect x="64" y="100" width="60" height="10" fill="#FDF1DA"/>
<rect x="54" y="80" width="10" height="20" fill="#FDF1DA"/>
<rect x="124" y="80" width="10" height="20" fill="#FDF1DA"/>
<rect x="64" y="70" width="60" height="30" fill="#FDF1DA"/>
<rect x="64" y="90" width="60" height="10" fill="#1B1711"/>
<rect x="54" y="70" width="10" height="20" fill="#1B1711"/>
<rect x="124" y="70" width="10" height="20" fill="#1B1711"/>
<rect x="64" y="60" width="60" height="30" fill="#1B1711"/>
<rect x="64" y="80" width="60" height="10" fill="#FDF1DA"/>
<rect x="54" y="60" width="10" height="20" fill="#FDF1DA"/>
<rect x="124" y="60" width="10" height="20" fill="#FDF1DA"/>
<rect x="64" y="50" width="60" height="30" fill="#FDF1DA"/>
<rect x="65" y="70" width="60" height="10" fill="#1B1711"/>
<rect x="55" y="50" width="10" height="20" fill="#1B1711"/>
<rect x="125" y="50" width="10" height="20" fill="#1B1711"/>
<rect x="65" y="40" width="60" height="30" fill="#1B1711"/>
<rect x="65" y="60" width="60" height="10" fill="#FDF1DA"/>
<rect x="55" y="40" width="10" height="20" fill="#FDF1DA"/>
<rect x="125" y="40" width="10" height="20" fill="#FDF1DA"/>
<rect x="65" y="30" width="60" height="30" fill="#FDF1DA"/>
<rect x="65" y="50" width="60" height="10" fill="#1B1711"/>
<rect x="55" y="30" width="10" height="20" fill="#1B1711"/>
<rect x="125" y="30" width="10" height="20" fill="#1B1711"/>
<rect x="65" y="20" width="60" height="30" fill="#1B1711"/>
<rect x="65" y="40" width="60" height="10" fill="#FDF1DA"/>
<rect x="55" y="20" width="10" height="20" fill="#FDF1DA"/>
<rect x="125" y="20" width="10" height="20" fill="#FDF1DA"/>
<rect x="65" y="10" width="60" height="30" fill="#FDF1DA"/>
<rect x="65" y="30" width="60" height="10" fill="#1B1711"/>
<rect x="55" y="10" width="10" height="20" fill="#1B1711"/>
<rect x="125" y="10" width="10" height="20" fill="#1B1711"/>
<rect x="65" width="60" height="30" fill="#1B1711"/>
<path d="M92.5018 24.2162L93.5366 23.6187L94.7946 24.345L97.5135 22.7753L96.0323 21.9201L93.5366 23.361L92.2786 22.6347L91.0206 23.361L88.7481 22.049L93.5366 19.2843L99.786 22.8924L101.267 22.0373L95.0178 18.4292L98.5686 16.3791L102.322 18.5463L103.56 17.8317L104.595 18.4292L103.357 19.1438L104.615 19.8701L103.357 20.5964L106.096 22.1778L107.557 21.3344L105.021 19.8701L106.279 19.1438L105.041 18.4292L106.299 17.7029L105.041 16.9766L106.299 16.2503L105.041 15.524L106.299 14.7977L105.041 14.0713L106.279 13.3568L105.041 12.6422L106.299 11.9159L104.818 11.0607L103.56 11.787L102.302 11.0607L101.064 11.7753L99.8266 11.0607L98.5686 11.787L97.3106 11.0607L96.0526 11.787L94.7946 11.0607L93.5366 11.787L92.2786 11.0607L91.0206 11.787L88.5249 10.3461L87.064 11.1896L89.7829 12.7593L91.0409 12.033L92.2989 12.7593L93.5366 12.0447L94.5714 12.6422L93.3337 13.3568L97.0874 15.524L93.5366 17.574L87.2669 13.9542L85.7857 14.8094L92.0554 18.4292L87.2669 21.1938L84.9741 19.8701L86.2321 19.1438L84.9944 18.4292L87.4901 16.9883L86.0089 16.1331L83.29 17.7029L84.548 18.4292L83.5132 19.0266L79.7595 16.8594L78.258 17.7263L94.754 27.2503L96.2555 26.3834L92.5018 24.2162ZM95.0178 12.6422L96.0526 12.0447L97.2903 12.7593L98.5483 12.033L99.8063 12.7593L101.064 12.033L102.322 12.7593L103.58 12.033L104.615 12.6305L103.357 13.3568L104.615 14.0831L103.357 14.8094L104.595 15.524L103.337 16.2503L104.595 16.9766L103.56 17.574L95.0178 12.6422Z" fill="#FDF1DA"/>
<rect x="10" y="110" width="60" height="10" fill="#FDF1DA"/>
<rect y="90" width="10" height="20" fill="#FDF1DA"/>
<rect x="70" y="90" width="10" height="20" fill="#FDF1DA"/>
<rect x="10" y="80" width="60" height="30" fill="#FDF1DA"/>
<rect x="10" y="100" width="60" height="10" fill="#1B1711"/>
<rect y="80" width="10" height="20" fill="#1B1711"/>
<rect x="70" y="80" width="10" height="20" fill="#1B1711"/>
<rect x="10" y="70" width="60" height="30" fill="#1B1711"/>
<rect x="10" y="90" width="60" height="10" fill="#FDF1DA"/>
<rect y="70" width="10" height="20" fill="#FDF1DA"/>
<rect x="70" y="70" width="10" height="20" fill="#FDF1DA"/>
<rect x="10" y="60" width="60" height="30" fill="#FDF1DA"/>
<rect x="10" y="80" width="60" height="10" fill="#1B1711"/>
<rect y="60" width="10" height="20" fill="#1B1711"/>
<rect x="70" y="60" width="10" height="20" fill="#1B1711"/>
<rect x="10" y="50" width="60" height="30" fill="#1B1711"/>
<path d="M41.5831 74.2162L40.5483 73.6187L39.2903 74.345L36.5714 72.7753L38.0526 71.9201L40.5483 73.361L41.8063 72.6347L43.0643 73.361L45.3368 72.049L40.5483 69.2843L34.2989 72.8924L32.8177 72.0373L39.0671 68.4292L35.5163 66.3791L31.7626 68.5463L30.5249 67.8317L29.4901 68.4292L30.7278 69.1438L29.4698 69.8701L30.7278 70.5964L27.9886 72.1778L26.5277 71.3344L29.064 69.8701L27.806 69.1438L29.0437 68.4292L27.7857 67.7029L29.0437 66.9766L27.7857 66.2503L29.0437 65.524L27.7857 64.7977L29.0437 64.0713L27.806 63.3568L29.0437 62.6422L27.7857 61.9159L29.2669 61.0607L30.5249 61.787L31.7829 61.0607L33.0206 61.7753L34.2583 61.0607L35.5163 61.787L36.7743 61.0607L38.0323 61.787L39.2903 61.0607L40.5483 61.787L41.8063 61.0607L43.0643 61.787L45.56 60.3461L47.0209 61.1896L44.302 62.7593L43.044 62.033L41.786 62.7593L40.5483 62.0447L39.5135 62.6422L40.7512 63.3568L36.9975 65.524L40.5483 67.574L46.818 63.9542L48.2991 64.8094L42.0295 68.4292L46.818 71.1938L49.1108 69.8701L47.8528 69.1438L49.0905 68.4292L46.5948 66.9883L48.0759 66.1331L50.7948 67.7029L49.5368 68.4292L50.5717 69.0266L54.3254 66.8594L55.8268 67.7263L39.3308 77.2503L37.8294 76.3834L41.5831 74.2162ZM39.0671 62.6422L38.0323 62.0447L36.7946 62.7593L35.5366 62.033L34.2786 62.7593L33.0206 62.033L31.7626 62.7593L30.5046 62.033L29.4698 62.6305L30.7278 63.3568L29.4698 64.0831L30.7278 64.8094L29.4901 65.524L30.7481 66.2503L29.4901 66.9766L30.5249 67.574L39.0671 62.6422Z" fill="#FDF1DA"/>
<rect x="80" y="140" width="60" height="10" fill="#1B1711"/>
<rect x="70" y="120" width="10" height="20" fill="#1B1711"/>
<rect x="140" y="120" width="10" height="20" fill="#1B1711"/>
<rect x="80" y="110" width="60" height="30" fill="#1B1711"/>
<rect x="80" y="130" width="60" height="10" fill="#FDF1DA"/>
<rect x="70" y="110" width="10" height="20" fill="#FDF1DA"/>
<rect x="140" y="110" width="10" height="20" fill="#FDF1DA"/>
<rect x="80" y="100" width="60" height="30" fill="#FDF1DA"/>
<rect x="80" y="120" width="60" height="10" fill="#1B1711"/>
<rect x="70" y="100" width="10" height="20" fill="#1B1711"/>
<rect x="140" y="100" width="10" height="20" fill="#1B1711"/>
<rect x="80" y="90" width="60" height="30" fill="#1B1711"/>
<path d="M111.583 114.216L110.548 113.619L109.29 114.345L106.571 112.775L108.053 111.92L110.548 113.361L111.806 112.635L113.064 113.361L115.337 112.049L110.548 109.284L104.299 112.892L102.818 112.037L109.067 108.429L105.516 106.379L101.763 108.546L100.525 107.832L99.4901 108.429L100.728 109.144L99.4698 109.87L100.728 110.596L97.9886 112.178L96.5277 111.334L99.064 109.87L97.806 109.144L99.0437 108.429L97.7857 107.703L99.0437 106.977L97.7857 106.25L99.0437 105.524L97.7857 104.798L99.0437 104.071L97.806 103.357L99.0437 102.642L97.7857 101.916L99.2669 101.061L100.525 101.787L101.783 101.061L103.021 101.775L104.258 101.061L105.516 101.787L106.774 101.061L108.032 101.787L109.29 101.061L110.548 101.787L111.806 101.061L113.064 101.787L115.56 100.346L117.021 101.19L114.302 102.759L113.044 102.033L111.786 102.759L110.548 102.045L109.513 102.642L110.751 103.357L106.997 105.524L110.548 107.574L116.818 103.954L118.299 104.809L112.029 108.429L116.818 111.194L119.111 109.87L117.853 109.144L119.09 108.429L116.595 106.988L118.076 106.133L120.795 107.703L119.537 108.429L120.572 109.027L124.325 106.859L125.827 107.726L109.331 117.25L107.829 116.383L111.583 114.216ZM109.067 102.642L108.032 102.045L106.795 102.759L105.537 102.033L104.279 102.759L103.021 102.033L101.763 102.759L100.505 102.033L99.4698 102.63L100.728 103.357L99.4698 104.083L100.728 104.809L99.4901 105.524L100.748 106.25L99.4901 106.977L100.525 107.574L109.067 102.642Z" fill="#FDF1DA"/>
</svg>
