<svg width="100" height="80" viewBox="0 0 100 80" fill="none" xmlns="http://www.w3.org/2000/svg">
<rect x="10" width="60" height="10" fill="#523615"/>
<rect x="10" y="70" width="60" height="10" fill="#523615"/>
<rect y="10" width="10" height="60" fill="#523615"/>
<rect x="70.2544" y="10" width="10" height="60" fill="#523615"/>
<rect x="10.2544" y="10" width="60" height="60" fill="#523615"/>
<path d="M31.4141 54.6V52.56H28.9341V47.2H31.8541V52.12H34.3341V54.6H38.8141V45.16H26.4941V42.24H38.8141V35.24H31.4141V32.8H29.3741V35.24H26.8941V37.72H21.4941V34.84H26.4941V32.36H28.9341V29.88H31.4141V27.4H33.8941V24.92H36.3741V22.48H38.8141V20H41.7341V22.48H44.2141V24.92H46.6541V27.4H49.1341V29.88H51.6141V32.36H54.0941V34.84H59.0141V37.72H53.6541V35.24H51.1741V32.8H49.1341V35.24H41.7341V42.24H54.0941V45.16H41.7341V54.6H46.2541V52.12H48.6941V47.2H51.6141V52.56H49.1341V54.6H56.5341V57.56H24.0141V54.6H31.4141ZM48.6941 32.36V30.32H46.2541V27.84H43.7741V25.36H41.2941V22.88H39.2541V25.36H36.7741V27.84H34.3341V30.32H31.8541V32.36H48.6941Z" fill="#FDF1DA"/>
<rect x="20" width="60" height="10" fill="#FDF1DA"/>
<rect x="20" y="70" width="60" height="10" fill="#FDF1DA"/>
<rect x="10" y="10" width="10" height="60" fill="#FDF1DA"/>
<rect x="80" y="10" width="10" height="60" fill="#FDF1DA"/>
<rect x="20" y="10" width="60" height="60" fill="#FDF1DA"/>
<path d="M41.1597 54.6V52.56H38.6797V47.2H41.5997V52.12H44.0797V54.6H48.5597V45.16H36.2397V42.24H48.5597V35.24H41.1597V32.8H39.1197V35.24H36.6397V37.72H31.2397V34.84H36.2397V32.36H38.6797V29.88H41.1597V27.4H43.6397V24.92H46.1197V22.48H48.5597V20H51.4797V22.48H53.9597V24.92H56.3997V27.4H58.8797V29.88H61.3597V32.36H63.8397V34.84H68.7597V37.72H63.3997V35.24H60.9197V32.8H58.8797V35.24H51.4797V42.24H63.8397V45.16H51.4797V54.6H55.9997V52.12H58.4397V47.2H61.3597V52.56H58.8797V54.6H66.2797V57.56H33.7597V54.6H41.1597ZM58.4397 32.36V30.32H55.9997V27.84H53.5197V25.36H51.0397V22.88H48.9997V25.36H46.5197V27.84H44.0797V30.32H41.5997V32.36H58.4397Z" fill="#FDF1DA"/>
<rect x="30" width="60" height="10" fill="#523615"/>
<rect x="30" y="70" width="60" height="10" fill="#523615"/>
<rect x="20" y="10" width="10" height="60" fill="#523615"/>
<rect x="90" y="10" width="10" height="60" fill="#523615"/>
<rect x="30" y="10" width="60" height="60" fill="#523615"/>
<path d="M51.1597 54.6V52.56H48.6797V47.2H51.5997V52.12H54.0797V54.6H58.5597V45.16H46.2397V42.24H58.5597V35.24H51.1597V32.8H49.1197V35.24H46.6397V37.72H41.2397V34.84H46.2397V32.36H48.6797V29.88H51.1597V27.4H53.6397V24.92H56.1197V22.48H58.5597V20H61.4797V22.48H63.9597V24.92H66.3997V27.4H68.8797V29.88H71.3597V32.36H73.8397V34.84H78.7597V37.72H73.3997V35.24H70.9197V32.8H68.8797V35.24H61.4797V42.24H73.8397V45.16H61.4797V54.6H65.9997V52.12H68.4397V47.2H71.3597V52.56H68.8797V54.6H76.2797V57.56H43.7597V54.6H51.1597ZM68.4397 32.36V30.32H65.9997V27.84H63.5197V25.36H61.0397V22.88H58.9997V25.36H56.5197V27.84H54.0797V30.32H51.5997V32.36H68.4397Z" fill="#FDF1DA"/>
</svg>
