<svg width="20" height="30" viewBox="0 0 20 30" fill="none" xmlns="http://www.w3.org/2000/svg">
<path d="M13.7502 28.75H15.0002V20H13.7502V21.25H1.25024V20H0.000244141V28.75H1.25024V30H13.7502V28.75Z" fill="#645D52"/>
<path d="M15.0002 18.75V10H13.7502V11.25H1.25024V10H0.000244141V18.75H1.25024V20H13.7502V18.75H15.0002Z" fill="#645D52"/>
<path d="M13.75 8.75H15V0H13.75V1.25H1.25V0H0V8.75H1.25L1.25024 10H13.7502L13.75 8.75Z" fill="#645D52"/>
<path fill-rule="evenodd" clip-rule="evenodd" d="M19.5002 11.75H18.2502V12.25H17.0002V13.5H16.0002V14.75H15.2502V15H15.0002V16.25H15.2502V16H15.5002V15.5H16.2502V15.25H17.2502V15.5H18.5002V15H19.2502V14.25H20.0002V13H19.5002V11.75ZM17.2502 14.25H17.5002V13.75H18.7502V13H18.2502V13.5H17.2502V14.25Z" fill="#645D52"/>
</svg>
