<svg width="20" height="20" viewBox="0 0 20 20" fill="none" xmlns="http://www.w3.org/2000/svg">
<path d="M13.75 18.75H15V10H13.75V11.25H1.25V10H0V18.75H1.25V20H13.75V18.75Z" fill="#645D52"/>
<path d="M15 8.75V0H13.75V1.25H1.25V0H0V8.75H1.25V10H13.75V8.75H15Z" fill="#645D52"/>
<path fill-rule="evenodd" clip-rule="evenodd" d="M19.5 1.75H18.25V2.25H17V3.5H16V4.75H15.25V5H15V6.25H15.25V6H15.5V5.5H16.25V5.25H17.25V5.5H18.5V5H19.25V4.25H20V3H19.5V1.75ZM17.25 4.25H17.5V3.75H18.75V3H18.25V3.5H17.25V4.25Z" fill="#645D52"/>
</svg>
